# xmcd
#
# Track frame offsets: 
#        150
#        17395
#        32320
#        53900
#        74230
#        94045
#        115060
#        125600
#        145307
#        160160
#        177437
#        198185
#        217140
#        231280
#        249250
#        264515
#        284765
#        309520
#        328687
#
# Disc length: 4578 seconds
#
# Revision: 0
# Processed by: cddbd v1.5.1PL0 Copyright (c) Steve Scherf et al.
# Submitted via: ExactAudioCopy v0.95a4
#
DISCID=1911e013
DTITLE=Various Artist - From A Distance (No.1 Woman II)
DYEAR=1900
DGENRE=
TTITLE0=I Dreamt I Dwelt In Marble Halls
TTITLE1=Walking In The Air
TTITLE2=Send Me A Song
TTITLE3=Caledonia
TTITLE4=From A Distance
TTITLE5=You Brought Me Up
TTITLE6=Then You'll Remember Me
TTITLE7=Danny Boy
TTITLE8=Siuil A Run
TTITLE9=She Moved Through The Fair
TTITLE10=The Lass Of Glenshee
TTITLE11=Aileen Duinn
TTITLE12=Garden Of Graves
TTITLE13=Ripples Of Hope
TTITLE14=Sweetest Summer Rain
TTITLE15=Lovers Heart
TTITLE16=Hand In Your Hand
TTITLE17=Wedding Song
TTITLE18=The Last Rose Of Summer
EXTD=
EXTT0=
EXTT1=
EXTT2=
EXTT3=
EXTT4=
EXTT5=
EXTT6=
EXTT7=
EXTT8=
EXTT9=
EXTT10=
EXTT11=
EXTT12=
EXTT13=
EXTT14=
EXTT15=
EXTT16=
EXTT17=
EXTT18=
PLAYORDER=
